<svg width="26" height="24" viewBox="0 0 26 24" fill="none" xmlns="http://www.w3.org/2000/svg">
<path d="M12.6678 0.0699219C13.234 -0.225273 13.925 0.459532 13.6242 1.02512C13.4495 1.48616 12.7872 1.60875 12.4489 1.25732C12.0904 0.920052 12.2073 0.253428 12.6678 0.0699219ZM6.57889 0.726286C6.92278 0.584727 7.35811 0.899792 7.32304 1.2746C7.35954 1.68148 6.862 1.98096 6.51148 1.78758C6.04707 1.60771 6.10019 0.853818 6.57889 0.726286ZM19.0498 1.79901C18.5124 1.73408 18.4273 0.889143 18.9447 0.719013C19.346 0.523299 19.7142 0.890311 19.7729 1.2707C19.6888 1.59551 19.4168 1.89291 19.0498 1.79901ZM7.96434 3.31784C8.53928 2.95421 9.35967 3.49577 9.27122 4.16356C9.24135 4.83784 8.34577 5.22849 7.84045 4.77265C7.35187 4.4146 7.4259 3.59317 7.96434 3.31784ZM16.7411 3.70369C16.9976 3.04265 18.0369 3.02265 18.3289 3.66616C18.6175 4.16693 18.2625 4.78707 17.7484 4.95732C17.0673 5.08447 16.4204 4.34823 16.7411 3.70369ZM11.9346 4.91979C11.929 4.35161 12.4465 3.92823 12.9865 3.88953C13.3447 3.96135 13.7351 4.11395 13.8888 4.47538C14.1751 4.97395 13.9208 5.66044 13.4034 5.88927C13.1668 6.02187 12.8871 5.97213 12.6294 5.95668C12.2355 5.7633 11.9038 5.38408 11.9346 4.91979ZM2.87941 5.74771C3.4046 5.42486 4.11317 6.01408 3.91434 6.5846C3.80486 7.0781 3.14148 7.27888 2.76226 6.96382C2.35746 6.66862 2.42161 5.95888 2.87941 5.74771ZM22.3242 5.74668C22.7698 5.4007 23.5051 5.79758 23.452 6.36018C23.4819 6.87317 22.8462 7.26005 22.4038 6.9959C21.9167 6.77694 21.8669 6.02745 22.3242 5.74668ZM14.4811 6.7681C15.2164 6.50395 16.0898 6.82005 16.5089 7.47564C17.0617 8.27707 16.7676 9.49758 15.9097 9.95745C15.0207 10.5014 13.7227 10.0403 13.3943 9.04758C13.0216 8.15888 13.5646 7.04668 14.4811 6.7681ZM10.1668 6.85551C10.9817 6.47083 12.0785 6.79356 12.4721 7.62719C12.9354 8.43862 12.5772 9.56849 11.749 9.98745C10.9198 10.4584 9.74993 10.1014 9.34863 9.23018C8.89863 8.38771 9.29824 7.24343 10.1668 6.85551ZM5.84694 8.33239C5.90889 7.80732 6.40421 7.46564 6.90395 7.43031C7.44239 7.49525 7.87252 7.91343 7.93109 8.45836C7.89577 8.99784 7.47889 9.52512 6.9072 9.52187C6.27824 9.57603 5.72681 8.95031 5.84694 8.33239ZM18.6064 7.54447C19.2521 7.16862 20.1488 7.71577 20.1201 8.45758C20.1643 9.24356 19.172 9.79745 18.529 9.33642C17.8611 8.95252 17.9132 7.87135 18.6064 7.54447ZM8.41109 10.3146C9.16629 10.1068 10.0298 10.4628 10.4002 11.1569C10.8059 11.8556 10.6401 12.8263 10.0099 13.3388C9.20174 14.0904 7.71122 13.7886 7.2811 12.7628C6.78681 11.8224 7.3872 10.5621 8.41109 10.3146ZM16.5941 10.3107C17.3282 10.1007 18.1907 10.3837 18.5854 11.0525C19.1072 11.8175 18.8581 12.9584 18.0812 13.4515C17.2675 14.0241 16.0069 13.7234 15.5591 12.8281C15.0163 11.902 15.5625 10.5932 16.5941 10.3107ZM3.55382 11.1834C4.20616 10.9367 4.92928 11.6565 4.66499 12.3033C4.50356 12.8925 3.67317 13.1103 3.24421 12.6759C2.74226 12.268 2.92811 11.3603 3.55382 11.1834ZM21.2356 12.122C21.2168 11.5815 21.6123 11.1028 22.1665 11.0729C22.6133 11.1437 23.0477 11.5041 23.0124 11.9904C23.0533 12.6328 22.2793 13.0694 21.732 12.7676C21.4755 12.6372 21.344 12.3741 21.2356 12.122ZM0.34629 11.5007C0.738758 11.3294 1.22421 11.6695 1.1346 12.1054C1.11356 12.5989 0.384991 12.7886 0.117329 12.3763C-0.119164 12.0899 0.022394 11.6484 0.34629 11.5007ZM25.0921 11.4908C25.3685 11.2941 25.8119 11.4355 25.9214 11.7584C26.1071 12.111 25.7665 12.5941 25.3697 12.5345C24.8125 12.5852 24.6323 11.7362 25.0921 11.4908ZM10.5428 13.8598C11.5755 13.5912 12.6856 14.4524 12.6921 15.5158C12.7595 16.5903 11.6662 17.5432 10.609 17.295C9.79187 17.1634 9.15071 16.3763 9.1772 15.5506C9.17499 14.7608 9.77097 14.0268 10.5428 13.8598ZM14.6327 13.8576C15.6808 13.5646 16.8241 14.4412 16.8075 15.5291C16.8628 16.5838 15.8036 17.5046 14.7685 17.2954C13.7945 17.1694 13.0758 16.0993 13.3477 15.1541C13.485 14.5242 14.0112 14.012 14.6327 13.8576ZM6.74707 14.5121C7.47239 14.3884 8.15239 15.1976 7.85824 15.8863C7.64369 16.6202 6.57564 16.8193 6.10343 16.2198C5.54954 15.6441 5.96304 14.5916 6.74707 14.5121ZM18.7412 14.5445C19.388 14.2736 20.1819 14.833 20.1321 15.535C20.1581 16.3077 19.178 16.8406 18.5455 16.3895C17.8291 15.9846 17.9595 14.7929 18.7412 14.5445ZM22.0937 17.9071C21.8404 17.435 22.3004 16.8093 22.8246 16.8967C23.0855 16.8923 23.268 17.0978 23.435 17.2703C23.4693 17.5501 23.5268 17.8838 23.2946 18.0994C22.9793 18.4985 22.265 18.3846 22.0937 17.9071ZM2.8772 17.0281C3.36707 16.702 4.072 17.1884 3.96187 17.7611C3.9033 18.2676 3.26525 18.5571 2.84499 18.2697C2.39395 18.0088 2.41058 17.2659 2.8772 17.0281ZM12.5551 18.0884C13.1964 17.8054 14.0134 18.3637 13.9527 19.0701C14.0002 19.8506 12.9897 20.3911 12.3627 19.9224C11.6662 19.5199 11.7823 18.3359 12.5551 18.0884ZM8.07265 19.1341C8.61889 18.8467 9.35187 19.343 9.30213 19.9543C9.31876 20.4563 8.82889 20.8841 8.33356 20.8099C7.9233 20.8011 7.65577 20.4333 7.52421 20.0836C7.53097 19.7024 7.68785 19.2778 8.07265 19.1341ZM17.1524 19.1429C17.7141 18.7958 18.5124 19.2943 18.4593 19.9481C18.4737 20.6313 17.5715 21.069 17.0485 20.6202C16.5421 20.2684 16.604 19.4226 17.1524 19.1429ZM18.7314 23.0464C18.4815 22.6684 18.7756 22.2129 19.1814 22.1267C19.5076 22.193 19.8525 22.4384 19.784 22.8165C19.7364 23.3284 18.9878 23.4854 18.7314 23.0464ZM6.19746 22.7181C6.29694 22.4185 6.53798 22.1207 6.89071 22.1986C7.40486 22.2351 7.55746 23.0101 7.10746 23.2489C6.70278 23.5217 6.2333 23.1481 6.19746 22.7181ZM12.2443 23.0619C12.3428 22.6186 12.9165 22.403 13.2947 22.6385C13.5446 22.7458 13.6176 23.0254 13.6817 23.263C13.6475 23.3868 13.6168 23.5107 13.5867 23.6345C13.4319 23.818 13.2329 24.0015 12.9753 23.9949C12.4964 24.051 12.0645 23.5097 12.2443 23.0619Z" fill="#4D515C"/>
</svg>
