<svg width="20" height="16" viewBox="0 0 20 16" fill="none" xmlns="http://www.w3.org/2000/svg">
<path d="M2.60054 3.33186C2.62424 3.09768 2.53493 2.86622 2.36007 2.70861L0.578844 0.562839V0.24231H6.10955L10.3845 9.61781L14.1429 0.24231H19.4153V0.562839L17.8924 2.02303C17.7611 2.12311 17.6959 2.2876 17.7231 2.4504V13.1793C17.6959 13.3421 17.7611 13.5065 17.8924 13.6066L19.3797 15.0668V15.3873H11.8985V15.0668L13.4393 13.571C13.5907 13.4197 13.5907 13.3751 13.5907 13.1436V4.47152L9.30685 15.3517H8.72795L3.74052 4.47152V11.7636C3.69894 12.0702 3.80076 12.3788 4.01661 12.6005L6.02049 15.0312V15.3517H0.338379V15.0312L2.34226 12.6005C2.55654 12.3784 2.65242 12.0677 2.60054 11.7636V3.33186Z" fill="#000B2D"/>
</svg>
