<svg width="157" height="16" viewBox="0 0 157 16" fill="none" xmlns="http://www.w3.org/2000/svg">
<path d="M12.3701 16L13.5788 12.9205H8.56904C5.23292 12.9205 3.65969 11.3361 3.65969 8C3.65969 4.66388 5.23292 3.09066 8.56904 3.09066H13.5788L13.1213 0H8.56904C2.75593 0 0 2.56625 0 8C0 13.4338 2.75593 16 8.56904 16H12.3701Z" fill="#EBECF0"/>
<path d="M32.0781 16L25.7741 0H20.5858L14.2371 16H18.053L19.4923 12.2287H26.8229L28.2622 16H32.0781ZM23.0516 2.95676H23.3082L25.6625 9.14923H20.675L23.0516 2.95676Z" fill="#EBECF0"/>
<path d="M44.6862 10.9456C46.9958 10.0642 48.1562 8.24547 48.1562 5.75732C48.1562 3.96095 47.5537 2.55509 46.3598 1.52859C45.1548 0.51325 43.3808 0 41.0488 0H33.8299V16H37.3891V11.5258H40.9372L44.0167 16H48.3124L44.6862 10.9456ZM40.8145 3.09066C43.4365 3.09066 44.4965 3.93863 44.4965 5.75732C44.4965 7.5537 43.4365 8.41283 40.8145 8.41283H37.3891V3.09066H40.8145Z" fill="#EBECF0"/>
<path d="M50.9456 0V16H57.7741C63.4979 16 66.2092 13.4338 66.2092 8C66.2092 2.56625 63.4979 0 57.7741 0H50.9456ZM54.5049 12.9205V3.09066H57.7741C61.0209 3.09066 62.5495 4.66388 62.5495 8C62.5495 11.3361 61.0209 12.9205 57.7741 12.9205H54.5049Z" fill="#EBECF0"/>
<path d="M84.6974 16L78.3933 0H73.205L66.8564 16H70.6723L72.1116 12.2287H79.4421L80.8815 16H84.6974ZM75.6709 2.95676H75.9275L78.2817 9.14923H73.2943L75.6709 2.95676Z" fill="#EBECF0"/>
<path d="M94.1702 16C97.9191 16 99.9944 14.3487 99.9944 11.4477C99.9944 9.96374 99.5816 8.88145 98.7225 8.12273C97.8633 7.37517 96.7029 6.94003 94.9958 6.62761L91.9498 6.08089C90.2427 5.76848 89.3947 5.33333 89.3947 4.35146C89.3947 3.4477 90.0976 3.09066 91.7043 3.09066H98.901L98.4435 0H91.5593C87.8103 0 85.735 1.60669 85.735 4.41841C85.735 5.81311 86.159 6.88424 87.007 7.60948C87.855 8.33473 89.1269 8.84798 90.834 9.14923L93.7797 9.67364C95.4756 9.9749 96.3459 10.4658 96.3459 11.5258C96.3459 12.5411 95.643 12.9205 94.0363 12.9205H85.5565L86.7938 16H94.1702Z" fill="#EBECF0"/>
<path d="M113.964 6.3152H106.008V0H102.449V16H106.008V9.3947H113.964V16H117.523V0H113.964V6.3152Z" fill="#EBECF0"/>
<path d="M124.664 16V0H121.105V16H124.664Z" fill="#EBECF0"/>
<path d="M131.782 16V9.94142H138.912V6.9735H131.782V3.09066H140.787L140.329 0H128.223V16H131.782Z" fill="#EBECF0"/>
<path d="M141.4 0L141.937 3.09066H147.269V16H150.828V3.09066H156.709V0H141.4Z" fill="#EBECF0"/>
</svg>
