<svg width="17" height="13" viewBox="0 0 17 13" fill="none" xmlns="http://www.w3.org/2000/svg">
<path d="M14.0447 1.01094C13.0249 0.543021 11.9313 0.198277 10.7879 0.000828261C10.7671 -0.00298244 10.7463 0.00654093 10.7356 0.0255877C10.5949 0.275731 10.4392 0.602063 10.3301 0.858559C9.10027 0.674446 7.87679 0.674446 6.67221 0.858559C6.5631 0.596362 6.40166 0.275731 6.26038 0.0255877C6.24966 0.00717642 6.22886 -0.00234695 6.20803 0.000828261C5.06527 0.197646 3.97171 0.54239 2.95129 1.01094C2.94246 1.01475 2.93488 1.02111 2.92986 1.02935C0.855594 4.12826 0.287367 7.151 0.56612 10.1363C0.567381 10.1509 0.57558 10.1648 0.586932 10.1737C1.95547 11.1787 3.28114 11.7889 4.58219 12.1933C4.60301 12.1997 4.62507 12.192 4.63832 12.1749C4.94608 11.7546 5.22043 11.3115 5.45565 10.8454C5.46953 10.8181 5.45628 10.7858 5.42791 10.775C4.99275 10.6099 4.5784 10.4086 4.17982 10.1801C4.14829 10.1617 4.14577 10.1166 4.17477 10.095C4.25865 10.0321 4.34255 9.96673 4.42264 9.9007C4.43713 9.88865 4.45732 9.8861 4.47435 9.89372C7.09286 11.0892 9.9277 11.0892 12.5153 9.89372C12.5323 9.88547 12.5525 9.88801 12.5677 9.90007C12.6478 9.9661 12.7316 10.0321 12.8161 10.095C12.8451 10.1166 12.8433 10.1617 12.8117 10.1801C12.4131 10.4131 11.9988 10.6099 11.563 10.7743C11.5346 10.7851 11.522 10.8181 11.5359 10.8454C11.7762 11.3108 12.0505 11.754 12.3526 12.1743C12.3652 12.192 12.3879 12.1997 12.4087 12.1933C13.7161 11.7889 15.0417 11.1787 16.4103 10.1737C16.4223 10.1648 16.4298 10.1515 16.4311 10.1369C16.7647 6.6856 15.8723 3.68765 14.0655 1.02998C14.0611 1.02111 14.0535 1.01475 14.0447 1.01094ZM5.84668 8.31855C5.05833 8.31855 4.40876 7.59479 4.40876 6.70593C4.40876 5.81707 5.04574 5.09331 5.84668 5.09331C6.65392 5.09331 7.29721 5.82343 7.28459 6.70593C7.28459 7.59479 6.64761 8.31855 5.84668 8.31855ZM11.1632 8.31855C10.3748 8.31855 9.72526 7.59479 9.72526 6.70593C9.72526 5.81707 10.3622 5.09331 11.1632 5.09331C11.9704 5.09331 12.6137 5.82343 12.6011 6.70593C12.6011 7.59479 11.9704 8.31855 11.1632 8.31855Z" fill="#FF7A00"/>
</svg>
